<?xml version="1.0" standalone="no"?>
<!DOCTYPE svg PUBLIC "-//W3C//DTD SVG 20010904//EN"
 "http://www.w3.org/TR/2001/REC-SVG-20010904/DTD/svg10.dtd">
<svg version="1.0" xmlns="http://www.w3.org/2000/svg"
 width="300.000000pt" height="300.000000pt" viewBox="0 0 300.000000 300.000000"
 preserveAspectRatio="xMidYMid meet">
<metadata>
Created by potrace 1.10, written by Peter Selinger 2001-2011
</metadata>
<g transform="translate(0.000000,300.000000) scale(0.100000,-0.100000)"
fill="#000000" stroke="none">
<path d="M1606 2478 c-4 -46 -10 -93 -12 -104 -4 -14 0 -24 12 -28 9 -4 18 -5
20 -3 2 1 8 36 14 77 6 41 13 90 16 108 4 29 2 32 -19 32 -23 0 -25 -4 -31
-82z"/>
<path d="M1275 2529 c-80 -18 -77 -10 -49 -131 14 -65 21 -78 37 -78 17 0 19
5 13 39 l-6 39 45 11 c30 7 45 17 45 27 0 13 -7 15 -36 10 -19 -4 -42 -10 -49
-12 -9 -4 -17 4 -21 21 -8 31 6 45 46 45 32 0 53 14 48 31 -2 12 -14 12 -73
-2z"/>
<path d="M1692 2446 c-27 -114 -27 -116 -4 -116 15 0 22 18 40 98 27 117 26
112 4 112 -15 0 -23 -17 -40 -94z"/>
<path d="M1400 2459 c0 -26 4 -59 10 -73 11 -30 51 -43 86 -27 16 7 24 7 24 0
0 -6 8 -9 18 -7 14 3 17 15 17 81 0 73 -1 77 -22 77 -20 0 -22 -6 -25 -57 -3
-52 -5 -58 -27 -61 -31 -5 -41 12 -41 70 0 41 -3 47 -20 45 -17 -1 -20 -8 -20
-48z"/>
<path d="M1796 2474 c-28 -27 -19 -60 24 -94 22 -17 40 -38 40 -46 0 -23 -46
-16 -78 11 -29 24 -42 24 -42 -2 0 -21 61 -53 102 -53 29 0 41 6 53 24 21 31
9 56 -40 86 -22 14 -35 29 -33 39 5 24 37 25 68 2 24 -17 30 -18 40 -6 10 12
5 18 -22 35 -39 24 -91 26 -112 4z"/>
<path d="M1984 2396 c-3 -8 -12 -12 -19 -10 -17 7 -31 -16 -16 -26 9 -5 7 -16
-8 -41 -12 -19 -21 -44 -21 -56 0 -29 46 -61 62 -45 9 9 7 15 -7 26 -19 14
-19 15 -2 50 14 31 20 36 42 30 18 -4 25 -2 25 9 0 8 -7 18 -16 21 -14 5 -14
9 -3 22 10 13 10 17 -2 25 -20 12 -29 11 -35 -5z"/>
<path d="M918 2319 c-7 -13 -19 -24 -27 -24 -26 0 -22 -21 10 -61 17 -21 37
-48 45 -58 11 -16 16 -17 28 -7 14 12 12 18 -16 57 -31 43 -31 44 -13 64 17
19 17 22 3 37 -15 14 -17 13 -30 -8z"/>
<path d="M1100 2304 c-11 -12 -10 -18 3 -32 16 -15 18 -15 34 0 13 14 14 20 3
32 -7 9 -16 16 -20 16 -4 0 -13 -7 -20 -16z"/>
<path d="M2070 2295 c0 -9 11 -21 25 -27 23 -10 43 -44 32 -54 -3 -3 -22 7
-42 21 -34 22 -41 24 -59 12 -31 -21 -32 -52 -1 -74 15 -10 36 -28 47 -40 l21
-22 33 40 c40 48 48 72 34 99 -11 20 -66 60 -82 60 -5 0 -8 -7 -8 -15z m16
-89 c15 -12 17 -17 6 -28 -15 -15 -45 0 -50 26 -4 20 18 21 44 2z"/>
<path d="M798 2214 c-56 -30 -64 -89 -17 -128 17 -14 40 -26 51 -26 24 0 88
61 88 84 0 25 -29 19 -40 -9 -8 -21 -53 -45 -65 -33 -2 2 14 23 36 47 34 36
38 46 27 56 -22 21 -52 25 -80 9z m52 -28 c0 -3 -13 -19 -30 -37 -24 -27 -30
-30 -35 -17 -10 26 13 58 40 58 14 0 25 -2 25 -4z"/>
<path d="M2167 2150 c-20 -16 -27 -30 -27 -54 0 -42 34 -86 66 -86 32 0 31 26
0 34 -33 8 -43 42 -20 67 29 32 74 18 74 -22 0 -14 19 -29 36 -29 13 0 0 53
-18 74 -32 37 -76 43 -111 16z"/>
<path d="M667 2062 c-10 -10 -17 -28 -17 -40 0 -12 -6 -22 -14 -22 -15 0 -32
-33 -19 -38 4 -1 44 -25 88 -52 72 -44 81 -48 92 -33 11 14 8 19 -17 34 l-30
18 25 25 c32 32 32 70 0 101 -30 31 -84 34 -108 7z m88 -68 c0 -25 -4 -29 -32
-32 -27 -3 -35 1 -45 24 -11 23 -10 28 11 45 21 17 26 18 45 6 13 -9 21 -25
21 -43z"/>
<path d="M2305 2025 c-44 -25 -84 -46 -88 -48 -5 -1 -5 -10 -1 -20 5 -14 13
-16 42 -11 33 6 35 6 28 -17 -16 -52 -18 -68 -8 -85 8 -15 13 -10 32 34 12 29
24 52 25 52 1 0 21 -7 44 -15 22 -8 41 -11 41 -6 0 18 -43 51 -75 57 -19 3
-35 9 -35 13 0 4 23 18 50 31 32 15 50 29 48 39 -5 25 -20 21 -103 -24z"/>
<path d="M600 1897 c-51 -26 -65 -93 -25 -132 64 -65 162 12 129 100 -6 15
-54 45 -71 45 -4 0 -19 -6 -33 -13z m60 -45 c17 -13 21 -24 16 -40 -9 -26 -50
-39 -71 -22 -28 23 -13 80 21 80 6 0 22 -8 34 -18z"/>
<path d="M2416 1768 c-49 -10 -91 -20 -93 -22 -3 -2 1 -32 8 -65 9 -47 19 -67
41 -86 42 -36 91 -34 130 6 30 30 31 31 24 102 -4 39 -10 74 -14 77 -4 4 -47
-2 -96 -12z m78 -64 c17 -88 -93 -130 -124 -48 -20 52 -14 61 48 72 31 5 60
10 63 11 4 0 10 -15 13 -35z"/>
<path d="M460 1722 c0 -23 5 -25 108 -47 94 -19 102 -19 102 4 0 15 -15 21
-82 35 -46 9 -93 19 -105 22 -18 5 -23 2 -23 -14z"/>
<path d="M521 1614 c-28 -36 -27 -79 4 -109 52 -53 128 -15 128 65 0 45 -15
71 -29 49 -4 -8 -7 -28 -5 -45 1 -18 -4 -36 -13 -43 -18 -15 -18 -15 -16 57 1
49 0 52 -24 52 -15 0 -33 -10 -45 -26z m45 -51 c-3 -21 -5 -40 -5 -42 -3 -14
-31 26 -31 44 0 25 8 35 27 35 10 0 12 -10 9 -37z"/>
<path d="M2367 1522 c-23 -25 -31 -75 -17 -102 15 -29 28 -15 32 34 2 22 9 41
16 44 9 3 12 -13 12 -57 0 -66 4 -70 49 -46 46 24 55 74 20 119 -25 32 -86 37
-112 8z m101 -50 c4 -23 -13 -52 -29 -52 -5 0 -9 18 -9 41 0 33 3 40 18 37 9
-2 18 -14 20 -26z"/>
<path d="M496 1442 c4 -14 21 -23 60 -32 30 -7 54 -16 54 -20 0 -4 -23 -17
-50 -30 -34 -16 -49 -28 -45 -38 3 -7 5 -17 5 -22 0 -5 32 10 70 32 54 31 70
46 70 63 0 19 -9 25 -62 39 -35 9 -73 19 -85 22 -18 5 -21 3 -17 -14z"/>
<path d="M2406 1344 c-107 -21 -112 -42 -24 -105 78 -55 78 -55 78 -30 0 13
-17 32 -47 52 -41 28 -44 33 -27 40 10 4 35 8 55 8 34 1 49 13 49 42 0 11 4
11 -84 -7z"/>
<path d="M646 1292 c-3 -6 1 -23 11 -39 16 -29 13 -63 -6 -63 -5 0 -17 23 -26
50 -19 57 -34 62 -65 23 -41 -52 -6 -123 61 -123 50 0 83 39 75 89 -6 38 -39
80 -50 63z m-36 -78 c15 -44 6 -55 -21 -27 -15 14 -19 27 -14 42 9 31 22 26
35 -15z"/>
<path d="M2289 1181 c-32 -33 -41 -91 -14 -91 9 0 15 9 15 23 0 25 28 57 48
57 7 0 2 -21 -13 -57 -14 -31 -24 -57 -23 -59 2 -1 15 -5 30 -9 22 -6 33 -1
58 23 45 45 40 101 -11 127 -40 21 -57 19 -90 -14z m97 -45 c7 -19 -13 -56
-31 -56 -18 0 -19 11 -3 45 13 28 26 32 34 11z"/>
<path d="M618 1091 c-42 -38 -42 -78 0 -153 l33 -57 82 51 c45 28 84 52 85 53
8 7 -68 114 -87 124 -36 20 -79 13 -113 -18z m103 -21 c10 -6 25 -23 33 -38
14 -28 14 -28 -40 -61 -31 -18 -57 -31 -58 -29 -8 9 -36 68 -36 76 0 5 9 21
21 36 22 27 48 33 80 16z"/>
<path d="M2211 1052 c-9 -16 2 -26 81 -77 72 -46 92 -55 99 -44 5 8 9 17 9 20
0 4 -95 68 -166 112 -8 5 -17 0 -23 -11z"/>
<path d="M2146 958 c-54 -50 -24 -138 47 -138 37 0 87 49 87 85 0 35 -41 75
-79 75 -17 0 -41 -10 -55 -22z m72 -24 c37 -26 23 -74 -23 -74 -43 0 -58 39
-28 72 20 22 23 22 51 2z"/>
<path d="M2023 913 c-19 -7 -16 -27 7 -48 22 -20 18 -35 -9 -35 -10 0 -25 -8
-34 -18 -26 -29 -21 -70 13 -104 36 -35 71 -33 106 7 12 13 24 22 27 19 2 -2
10 2 16 10 10 12 2 29 -49 96 -33 44 -62 80 -63 79 -1 0 -8 -3 -14 -6z m61
-122 c31 -35 0 -80 -45 -66 -24 8 -35 50 -19 70 17 21 43 19 64 -4z"/>
<path d="M836 859 c-14 -17 -26 -39 -26 -48 0 -24 37 -71 56 -71 20 0 18 -10
-8 -37 -20 -22 -21 -25 -5 -40 15 -15 18 -15 38 11 11 15 41 50 65 78 49 58
52 68 24 75 -11 3 -20 9 -20 14 0 20 -42 49 -69 49 -20 0 -37 -9 -55 -31z m92
-21 c18 -18 15 -43 -8 -63 -17 -15 -24 -16 -45 -7 -27 12 -31 32 -15 63 12 21
50 25 68 7z"/>
<path d="M1020 766 c0 -7 13 -16 29 -19 28 -6 59 -42 47 -54 -2 -3 -27 7 -55
23 -28 15 -54 24 -58 20 -4 -4 -7 -23 -7 -43 0 -44 32 -73 80 -73 74 0 102 85
43 134 -33 28 -79 35 -79 12z m30 -81 c34 -18 39 -35 11 -35 -33 0 -51 11 -51
31 0 23 3 23 40 4z"/>
<path d="M1849 735 c-30 -16 -44 -42 -26 -48 7 -2 24 5 39 16 25 19 58 18 58
-1 0 -5 -22 -19 -50 -32 -27 -13 -50 -27 -50 -31 0 -15 53 -49 77 -49 28 0 83
50 83 75 0 24 -27 72 -45 79 -26 10 -58 6 -86 -9z m75 -102 c-10 -8 -25 -12
-33 -11 -27 5 -21 24 11 40 30 14 33 14 37 0 2 -9 -5 -22 -15 -29z"/>
<path d="M1162 613 c-40 -65 -49 -88 -40 -95 22 -13 26 -10 65 60 l38 67 9
-77 c6 -51 14 -79 23 -83 21 -8 28 -1 63 60 17 30 36 55 41 55 5 0 9 -31 9
-69 0 -62 2 -70 21 -76 11 -4 22 -5 24 -3 4 3 -15 201 -19 204 0 1 -11 5 -23
8 -18 6 -26 -2 -54 -54 -19 -33 -36 -60 -40 -60 -3 0 -9 30 -12 66 -5 63 -15
84 -42 84 -5 0 -34 -39 -63 -87z"/>
<path d="M1743 694 c-8 -4 -7 -17 4 -51 16 -45 15 -47 -5 -64 -12 -9 -22 -24
-22 -33 0 -19 29 -21 36 -2 3 8 15 11 30 8 29 -5 29 0 7 84 -16 61 -23 69 -50
58z"/>
<path d="M1552 638 c2 -15 10 -23 23 -23 13 0 21 8 23 23 3 18 -1 22 -23 22
-22 0 -26 -4 -23 -22z"/>
</g>
</svg>
