<svg
    xmlns="http://www.w3.org/2000/svg"
    xmlSpace="preserve"
    style={{
      enableBackground: "new 0 0 600 450",
    }}
    viewBox="0 0 600 450"
    {...props}
  >
    <path
      d="M425.2 164.6c-4.2-1.4-8.3-2.7-12.5-3.9.7-2.9 1.3-5.7 1.9-8.6 9.5-46 3.2-82.9-17.8-95.1-20.3-11.6-53.4.5-86.8 29.6-3.3 2.9-6.6 5.9-9.6 8.9-2.1-2-4.2-4-6.4-5.9-35.1-31.2-70.3-44.3-91.3-32-20.2 11.7-26.2 46.5-17.7 90 .8 4.3 1.8 8.6 2.9 12.9-4.9 1.4-9.8 2.9-14.3 4.5-41.2 14.3-70.7 36.8-70.7 60.1 0 24.1 31.5 48.2 74.3 62.9 3.5 1.2 6.9 2.3 10.5 3.3-1.2 4.6-2.2 9.2-3.1 13.9-8.1 42.8-1.8 76.7 18.4 88.4 20.8 12 55.8-.3 89.9-30.2 2.7-2.4 5.4-4.9 8.1-7.5 3.4 3.3 6.9 6.5 10.5 9.6 33 28.4 65.6 39.9 85.8 28.2 20.8-12 27.6-48.5 18.8-92.9-.7-3.4-1.5-6.9-2.3-10.4 2.5-.7 4.9-1.5 7.2-2.2 44.5-14.7 76.7-38.6 76.7-63-.2-23.5-30.5-46.2-72.5-60.6zM320.9 99.1c28.7-25 55.4-34.8 67.6-27.8 13 7.5 18 37.7 9.9 77.4-.5 2.6-1.1 5.2-1.8 7.7-17.1-3.9-34.5-6.6-51.9-8.2-10-14.3-21-28.1-32.9-40.9 3.1-2.8 6-5.5 9.1-8.2zM231.6 265c3.9 6.7 7.9 13.4 12.2 20-12-1.3-24-3.2-35.8-5.8 3.4-11.1 7.6-22.6 12.6-34.3 3.6 6.8 7.2 13.5 11 20.1zm-23.3-92.7c11.1-2.5 22.9-4.5 35.2-6-4.1 6.4-8.1 13-11.9 19.6-3.8 6.6-7.5 13.3-11 20.1-4.8-11.6-8.9-22.9-12.3-33.7zm21.1 53.1c5.1-10.6 10.6-21.1 16.5-31.3s12.2-20.2 18.8-30c11.6-.8 23.4-1.3 35.4-1.3s23.9.5 35.4 1.3c6.6 9.7 12.8 19.7 18.7 29.8 5.9 10.2 11.5 20.6 16.7 31.2-5.2 10.6-10.7 21.1-16.7 31.5-5.9 10.3-12.1 20.2-18.7 30.1-11.5.8-23.4 1.2-35.6 1.2s-23.8-.4-35.2-1.1c-6.7-9.8-13-19.8-19-30.1-5.7-10.2-11.1-20.7-16.3-31.3zm139.3 39.5c3.9-6.8 7.6-13.6 11.3-20.6 4.9 11.2 9.3 22.5 13 34.2-12 2.7-24.1 4.8-36.2 6.2 4.1-6.5 8-13.2 11.9-19.8zm11.1-59c-3.6-6.8-7.3-13.6-11.2-20.2-3.8-6.6-7.7-13-11.8-19.4 12.4 1.5 24.3 3.6 35.4 6.2-3.5 11.3-7.7 22.4-12.4 33.4zm-79.5-86.8c8.1 8.8 15.7 18 22.8 27.6-15.3-.7-30.6-.7-45.9 0 7.6-9.9 15.4-19.2 23.1-27.6zm-89.5-47.2c13-7.6 41.7 3.2 72 30.1 1.9 1.7 3.9 3.5 5.9 5.4-12 12.9-23 26.6-33.1 40.9-17.4 1.5-34.7 4.2-51.8 8-1-3.9-1.9-7.9-2.7-12-7.2-37.3-2.5-65.4 9.7-72.4zm-18.9 203.2c-3.2-.9-6.4-1.9-9.6-3-16.4-5.2-35.1-13.3-48.6-24.1-7.8-5.4-13-13.7-14.5-23.1 0-14.1 24.4-32.2 59.5-44.4 4.4-1.5 8.9-2.9 13.3-4.2 5.2 16.7 11.6 33.2 18.9 49-7.3 16.2-13.7 32.9-19 49.8zm89.9 75.6c-12.7 11.6-27.5 20.9-43.5 27.2-8.6 4.1-18.4 4.5-27.2 1-12.3-7.1-17.4-34.3-10.4-70.9.8-4.3 1.8-8.6 2.9-12.9 17.3 3.7 34.7 6.2 52.4 7.6 10.2 14.4 21.4 28.2 33.3 41.2-2.5 2.3-5 4.7-7.5 6.8zm18.9-18.7c-7.9-8.5-15.7-17.9-23.4-28 7.4.3 15 .5 22.7.5 7.9 0 15.7-.2 23.4-.5-6.9 9.7-14.6 19-22.7 28zm100.8 23.1c-.7 9.4-5.3 18.2-12.7 24.1-12.3 7.1-38.4-2.2-66.6-26.4-3.2-2.8-6.5-5.8-9.8-8.9 11.8-13 22.7-26.8 32.5-41.3 17.7-1.5 35.2-4.2 52.6-8.1.8 3.2 1.5 6.3 2.1 9.4 3.8 16.7 4.4 34.1 1.9 51.2zm14.1-82.9c-2.2.7-4.3 1.4-6.6 2-5.4-16.8-12-33.2-19.7-49.2 7.4-15.7 13.6-31.9 18.9-48.5 4 1.2 7.9 2.4 11.6 3.6 35.9 12.3 61.2 30.7 61.2 44.7 0 15.2-26.9 34.7-65.4 47.4zm-115.5-11.6c19.5 0 35.3-15.8 35.3-35.3S319.6 190 300.1 190c-19.5 0-35.3 15.8-35.3 35.3s15.8 35.3 35.3 35.3z"
      style={{
        fill: "#010202",
      }}
    />
  </svg>